<?xml version="1.0" encoding="utf-8"?>
<svg version="1.1" xmlns:xlink="http://www.w3.org/1999/xlink" width="20px" height="19px" xmlns="http://www.w3.org/2000/svg">
  <g transform="matrix(1 0 0 1 -794 -530 )">
    <path d="M 2.9625000000000004 3.3955078125  C 3.1208333333333336 3.548068576388888  3.2 3.735677083333334  3.2 3.958333333333334  C 3.2 4.172743055555554  3.1208333333333336 4.358289930555554  2.9625000000000004 4.514973958333334  C 2.804166666666667 4.67165798611111  2.6166666666666667 4.75  2.4 4.75  C 2.175 4.75  1.9854166666666666 4.67165798611111  1.83125 4.514973958333334  C 1.6770833333333335 4.358289930555554  1.6 4.172743055555554  1.6 3.958333333333334  C 1.6 3.735677083333334  1.6770833333333335 3.548068576388888  1.83125 3.3955078125  C 1.9854166666666666 3.24294704861111  2.175 3.166666666666666  2.4 3.166666666666666  C 2.6166666666666667 3.166666666666666  2.804166666666667 3.24294704861111  2.9625000000000004 3.3955078125  Z M 4.9625 10.848307291666668  C 5.120833333333334 10.691623263888888  5.2 10.506076388888888  5.2 10.291666666666668  L 5.2 2.375  C 5.2 2.160590277777776  5.120833333333334 1.975043402777776  4.9625 1.818359375  C 4.804166666666667 1.6616753472222219  4.616666666666667 1.583333333333334  4.4 1.583333333333334  L 0.8 1.583333333333334  C 0.5833333333333334 1.583333333333334  0.3958333333333333 1.6616753472222219  0.2375 1.818359375  C 0.07916666666666666 1.975043402777776  0 2.160590277777776  0 2.375  L 0 10.291666666666668  C 0 10.506076388888888  0.07916666666666666 10.691623263888888  0.2375 10.848307291666668  C 0.3958333333333333 11.004991319444445  0.5833333333333334 11.083333333333332  0.8 11.083333333333332  L 4.4 11.083333333333332  C 4.616666666666667 11.083333333333332  4.804166666666667 11.004991319444445  4.9625 10.848307291666668  Z M 19.5 7.508463541666666  C 19.5 7.772352430555554  19.437500000000004 8.08572048611111  19.3125 8.448567708333334  C 19.770833333333336 8.951605902777779  20 9.56597222222222  20 10.291666666666668  C 19.991666666666667 10.934895833333332  19.75208333333334 11.491536458333332  19.28125 11.961588541666668  C 18.81041666666667 12.431640625  18.25 12.666666666666668  17.6 12.666666666666668  L 14.137500000000001 12.666666666666668  C 14.170833333333334 12.782118055555555  14.20416666666667 12.881076388888888  14.2375 12.963541666666668  C 14.270833333333336 13.046006944444445  14.316666666666668 13.13671875  14.375 13.235677083333332  C 14.433333333333334 13.334635416666668  14.475 13.408854166666668  14.5 13.458333333333332  C 14.65 13.763454861111112  14.762500000000001 13.99848090277778  14.837499999999999 14.163411458333332  C 14.9125 14.328342013888888  14.991666666666667 14.569552951388888  15.075000000000001 14.887044270833334  C 15.158333333333333 15.204535590277779  15.2 15.519965277777779  15.2 15.833333333333334  C 15.2 16.03125  15.197916666666668 16.192057291666664  15.19375 16.315755208333336  C 15.189583333333335 16.439453125  15.16875 16.625  15.131250000000001 16.872395833333336  C 15.09375 17.119791666666664  15.04375 17.32595486111111  14.98125 17.490885416666664  C 14.918750000000001 17.65581597222222  14.818750000000001 17.84136284722222  14.681249999999999 18.047526041666664  C 14.54375 18.25368923611111  14.377083333333333 18.42068142361111  14.18125 18.548502604166664  C 13.985416666666667 18.67632378472222  13.73541666666667 18.783528645833336  13.431249999999999 18.8701171875  C 13.127083333333333 18.956705729166664  12.783333333333333 19  12.4 19  C 12.183333333333335 19  11.995833333333334 18.92165798611111  11.8375 18.764973958333336  C 11.670833333333334 18.60004340277778  11.529166666666669 18.393880208333336  11.412500000000001 18.146484375  C 11.295833333333334 17.899088541666664  11.214583333333334 17.684678819444446  11.168750000000001 17.503255208333336  C 11.122916666666669 17.32183159722222  11.070833333333335 17.0703125  11.012500000000001 16.748697916666664  C 10.9375 16.40234375  10.88125 16.15288628472222  10.84375 16.000325520833336  C 10.806249999999999 15.847764756944446  10.733333333333334 15.647786458333334  10.625 15.400390625  C 10.516666666666667 15.152994791666666  10.387500000000001 14.955078125  10.237499999999999 14.806640625  C 9.962500000000002 14.534505208333334  9.541666666666668 14.039713541666668  8.975 13.322265625  C 8.566666666666666 12.79448784722222  8.145833333333334 12.295572916666668  7.7125 11.825520833333332  C 7.279166666666668 11.35546875  6.9625 11.112196180555555  6.7625 11.095703125  C 6.554166666666667 11.079210069444445  6.375000000000001 10.99468315972222  6.2250000000000005 10.842122395833332  C 6.075 10.689561631944445  6.000000000000001 10.510199652777775  6 10.304036458333332  L 6 2.375  C 6.000000000000001 2.160590277777776  6.079166666666667 1.9771050347222219  6.237500000000001 1.824544270833334  C 6.395833333333334 1.671983506944442  6.583333333333334 1.5915798611111098  6.800000000000001 1.583333333333334  C 7.091666666666667 1.575086805555554  7.75 1.393663194444442  8.774999999999999 1.0390625  C 9.416666666666668 0.8246527777777759  9.91875 0.661783854166666  10.28125 0.550455729166666  C 10.64375 0.43912760416666596  11.15 0.31955295138888795  11.799999999999999 0.19173177083333404  C 12.450000000000001 0.0639105902777759  13.049999999999999 0  13.600000000000001 0  L 13.8125 0  L 14.762500000000001 0  L 15.2125 0  C 16.320833333333333 0.016493055555553915  17.14166666666667 0.33810763888888795  17.675 0.96484375  C 18.158333333333335 1.533854166666666  18.3625 2.280164930555554  18.2875 3.203776041666666  C 18.6125 3.508897569444442  18.8375 3.896484375  18.9625 4.366536458333334  C 19.104166666666668 4.869574652777776  19.104166666666668 5.351996527777776  18.9625 5.813802083333334  C 19.34583333333334 6.316840277777776  19.525000000000002 6.881727430555554  19.5 7.508463541666666  Z " fill-rule="nonzero" fill="#edb200" stroke="none" transform="matrix(1 0 0 1 794 530 )" />
  </g>
</svg>