<?xml version="1.0" encoding="utf-8"?>
<svg version="1.1" xmlns:xlink="http://www.w3.org/1999/xlink" width="20px" height="20px" xmlns="http://www.w3.org/2000/svg">
  <g transform="matrix(1 0 0 1 -953 -529 )">
    <path d="M 12.994791666666668 12.786458333333336  C 13.793402777777779 12.039930555555554  14.739583333333332 11.666666666666664  15.833333333333332 11.666666666666664  C 16.98784722222222 11.666666666666664  17.97092013888889 12.07248263888889  18.782552083333332 12.884114583333336  C 19.59418402777778 13.695746527777777  20 14.678819444444443  20 15.833333333333332  C 20 16.98784722222222  19.59418402777778 17.97092013888889  18.782552083333332 18.782552083333332  C 17.97092013888889 19.59418402777778  16.98784722222222 20  15.833333333333332 20  C 14.678819444444446 20  13.695746527777779 19.59418402777778  12.884114583333332 18.782552083333332  C 12.072482638888891 17.97092013888889  11.666666666666668 16.98784722222222  11.666666666666668 15.833333333333332  C 11.666666666666668 15.729166666666668  11.675347222222223 15.581597222222221  11.692708333333332 15.390625  L 7.005208333333334 13.046875  C 6.206597222222222 13.793402777777777  5.260416666666666 14.166666666666664  4.166666666666667 14.166666666666664  C 3.0121527777777777 14.166666666666664  2.029079861111111 13.760850694444443  1.2174479166666667 12.94921875  C 0.40581597222222215 12.137586805555554  0 11.15451388888889  0 10  C 0 8.845486111111109  0.40581597222222215 7.862413194444445  1.2174479166666667 7.05078125  C 2.029079861111111 6.239149305555554  3.0121527777777777 5.833333333333332  4.166666666666667 5.833333333333332  C 5.260416666666666 5.833333333333332  6.206597222222222 6.206597222222221  7.005208333333334 6.953125  L 11.692708333333332 4.609375  C 11.675347222222223 4.418402777777777  11.666666666666668 4.270833333333332  11.666666666666668 4.166666666666668  C 11.666666666666668 3.012152777777777  12.072482638888891 2.0290798611111094  12.884114583333332 1.2174479166666674  C 13.695746527777779 0.405815972222221  14.678819444444446 0  15.833333333333332 0  C 16.98784722222222 0  17.97092013888889 0.405815972222221  18.782552083333332 1.2174479166666674  C 19.59418402777778 2.0290798611111094  20 3.012152777777777  20 4.166666666666668  C 20 5.321180555555554  19.59418402777778 6.304253472222221  18.782552083333332 7.115885416666668  C 17.97092013888889 7.927517361111112  16.98784722222222 8.333333333333332  15.833333333333332 8.333333333333332  C 14.739583333333332 8.333333333333332  13.793402777777779 7.960069444444445  12.994791666666668 7.213541666666668  L 8.307291666666666 9.557291666666668  C 8.324652777777779 9.74826388888889  8.333333333333334 9.895833333333332  8.333333333333334 10  C 8.333333333333334 10.104166666666664  8.324652777777779 10.25173611111111  8.307291666666666 10.442708333333336  L 12.994791666666668 12.786458333333336  Z " fill-rule="nonzero" fill="#0054ae" stroke="none" transform="matrix(1 0 0 1 953 529 )" />
  </g>
</svg>