<?xml version="1.0" encoding="utf-8"?>
<svg version="1.1" xmlns:xlink="http://www.w3.org/1999/xlink" width="20px" height="20px" xmlns="http://www.w3.org/2000/svg">
  <g transform="matrix(1 0 0 1 -881 -529 )">
    <path d="M 14.285714285714286 4.2857142857142865  L 18.928571428571427 4.2857142857142865  C 19.226190476190478 4.2857142857142865  19.479166666666668 4.389880952380951  19.6875 4.5982142857142865  C 19.895833333333336 4.806547619047617  20 5.059523809523809  20 5.357142857142858  L 20 18.928571428571427  C 20 19.226190476190478  19.895833333333336 19.479166666666664  19.6875 19.6875  C 19.479166666666668 19.895833333333336  19.226190476190478 20  18.928571428571427 20  L 8.214285714285714 20  C 7.916666666666668 20  7.663690476190476 19.895833333333336  7.455357142857143 19.6875  C 7.24702380952381 19.479166666666664  7.142857142857143 19.226190476190478  7.142857142857143 18.928571428571427  L 7.142857142857143 15.714285714285714  L 1.0714285714285714 15.714285714285714  C 0.773809523809524 15.714285714285714  0.5208333333333334 15.61011904761905  0.3125 15.401785714285714  C 0.10416666666666666 15.193452380952381  0 14.94047619047619  0 14.642857142857144  L 0 7.142857142857142  C 0 6.845238095238095  0.0744047619047619 6.517857142857142  0.22321428571428573 6.1607142857142865  C 0.37202380952380953 5.803571428571428  0.5505952380952381 5.520833333333332  0.7589285714285714 5.3125  L 5.3125 0.7589285714285721  C 5.520833333333334 0.5505952380952372  5.803571428571429 0.3720238095238093  6.1607142857142865 0.22321428571428603  C 6.517857142857143 0.07440476190476275  6.845238095238095 0  7.142857142857143 0  L 11.785714285714286 0  C 12.083333333333336 0  12.336309523809526 0.1041666666666674  12.544642857142858 0.3125  C 12.75297619047619 0.5208333333333326  12.857142857142858 0.7738095238095233  12.857142857142858 1.071428571428572  L 12.857142857142858 4.732142857142858  C 13.363095238095239 4.434523809523809  13.839285714285714 4.2857142857142865  14.285714285714286 4.2857142857142865  Z M 12.857142857142858 10  L 12.857142857142858 6.662946428571428  L 9.520089285714286 10  L 12.857142857142858 10  Z M 5.7142857142857135 5.7142857142857135  L 5.7142857142857135 2.377232142857142  L 2.377232142857143 5.7142857142857135  L 5.7142857142857135 5.7142857142857135  Z M 7.366071428571429 10.446428571428573  C 7.5148809523809526 10.089285714285714  7.693452380952381 9.806547619047619  7.9017857142857135 9.598214285714286  L 11.428571428571427 6.071428571428572  L 11.428571428571427 1.428571428571428  L 7.142857142857143 1.428571428571428  L 7.142857142857143 6.071428571428572  C 7.142857142857143 6.369047619047617  7.038690476190476 6.622023809523809  6.830357142857143 6.830357142857142  C 6.62202380952381 7.0386904761904745  6.3690476190476195 7.142857142857142  6.071428571428571 7.142857142857142  L 1.4285714285714284 7.142857142857142  L 1.4285714285714284 14.285714285714286  L 7.142857142857143 14.285714285714286  L 7.142857142857143 11.428571428571427  C 7.142857142857143 11.130952380952381  7.217261904761906 10.803571428571427  7.366071428571429 10.446428571428573  Z M 8.571428571428571 18.571428571428573  L 18.571428571428573 18.571428571428573  L 18.571428571428573 5.7142857142857135  L 14.285714285714286 5.7142857142857135  L 14.285714285714286 10.357142857142856  C 14.285714285714286 10.654761904761905  14.18154761904762 10.907738095238093  13.973214285714286 11.116071428571427  C 13.764880952380953 11.324404761904763  13.511904761904763 11.428571428571427  13.214285714285714 11.428571428571427  L 8.571428571428571 11.428571428571427  L 8.571428571428571 18.571428571428573  Z " fill-rule="nonzero" fill="#333333" stroke="none" transform="matrix(1 0 0 1 881 529 )" />
  </g>
</svg>