<?xml version="1.0" encoding="utf-8"?>
<svg version="1.1" xmlns:xlink="http://www.w3.org/1999/xlink" width="20px" height="20px" xmlns="http://www.w3.org/2000/svg">
  <g transform="matrix(1 0 0 1 -846 -529 )">
    <path d="M 19.55078125 11.790364583333336  C 19.63324652777778 11.87282986111111  19.674479166666668 11.97048611111111  19.674479166666668 12.083333333333336  C 19.674479166666668 12.12673611111111  19.67013888888889 12.157118055555554  19.661458333333332 12.174479166666664  C 19.10590277777778 14.500868055555554  17.942708333333332 16.38671875  16.171875 17.83203125  C 14.401041666666668 19.27734375  12.326388888888891 20  9.947916666666666 20  C 8.680555555555557 20  7.454427083333334 19.76128472222222  6.26953125 19.283854166666668  C 5.084635416666666 18.80642361111111  4.027777777777779 18.125  3.098958333333333 17.239583333333332  L 1.4192708333333335 18.919270833333332  C 1.254340277777778 19.08420138888889  1.059027777777778 19.166666666666668  0.8333333333333333 19.166666666666668  C 0.607638888888889 19.166666666666668  0.4123263888888889 19.08420138888889  0.24739583333333331 18.919270833333332  C 0.08246527777777778 18.75434027777778  0 18.55902777777778  0 18.333333333333332  L 0 12.5  C 0 12.274305555555554  0.08246527777777778 12.078993055555554  0.24739583333333331 11.9140625  C 0.4123263888888889 11.749131944444443  0.607638888888889 11.666666666666664  0.8333333333333333 11.666666666666664  L 6.666666666666666 11.666666666666664  C 6.892361111111112 11.666666666666664  7.087673611111112 11.749131944444443  7.252604166666666 11.9140625  C 7.417534722222223 12.078993055555554  7.5 12.274305555555554  7.5 12.5  C 7.5 12.725694444444443  7.417534722222223 12.921006944444443  7.252604166666666 13.0859375  L 5.46875 14.869791666666664  C 6.0850694444444455 15.442708333333332  6.783854166666666 15.885416666666668  7.565104166666666 16.197916666666668  C 8.346354166666666 16.510416666666668  9.15798611111111 16.666666666666668  10 16.666666666666668  C 11.163194444444445 16.666666666666668  12.248263888888891 16.38454861111111  13.255208333333332 15.8203125  C 14.262152777777779 15.256076388888886  15.069444444444446 14.479166666666664  15.677083333333332 13.489583333333336  C 15.772569444444446 13.34201388888889  16.002604166666668 12.83420138888889  16.3671875 11.966145833333336  C 16.436631944444446 11.766493055555554  16.56684027777778 11.666666666666664  16.7578125 11.666666666666664  L 19.2578125 11.666666666666664  C 19.37065972222222 11.666666666666664  19.46831597222222 11.707899305555554  19.55078125 11.790364583333336  Z M 19.752604166666668 1.0807291666666674  C 19.91753472222222 1.245659722222221  20 1.440972222222221  20 1.6666666666666674  L 20 7.5  C 20 7.725694444444445  19.91753472222222 7.921006944444445  19.752604166666668 8.0859375  C 19.587673611111114 8.250868055555555  19.392361111111114 8.333333333333332  19.166666666666668 8.333333333333332  L 13.333333333333332 8.333333333333332  C 13.107638888888891 8.333333333333332  12.912326388888891 8.250868055555555  12.747395833333332 8.0859375  C 12.582465277777779 7.921006944444445  12.500000000000002 7.725694444444445  12.5 7.5  C 12.500000000000002 7.274305555555554  12.582465277777779 7.078993055555554  12.747395833333332 6.9140625  L 14.544270833333332 5.1171875  C 13.259548611111114 3.927951388888886  11.744791666666668 3.3333333333333326  10 3.3333333333333326  C 8.836805555555557 3.3333333333333326  7.751736111111112 3.615451388888886  6.744791666666666 4.1796875  C 5.737847222222223 4.743923611111109  4.930555555555556 5.520833333333332  4.322916666666667 6.510416666666668  C 4.227430555555555 6.657986111111109  3.997395833333333 7.165798611111109  3.6328125 8.033854166666668  C 3.563368055555556 8.233506944444445  3.4331597222222228 8.333333333333332  3.2421875 8.333333333333332  L 0.6510416666666667 8.333333333333332  C 0.5381944444444444 8.333333333333332  0.4405381944444445 8.292100694444445  0.35807291666666663 8.209635416666668  C 0.2756076388888889 8.12717013888889  0.234375 8.02951388888889  0.234375 7.916666666666668  L 0.234375 7.825520833333332  C 0.7986111111111112 5.499131944444445  1.9704861111111114 3.61328125  3.75 2.16796875  C 5.529513888888889 0.72265625  7.612847222222223 0  10 0  C 11.26736111111111 0  12.5 0.2408854166666674  13.697916666666668 0.72265625  C 14.895833333333332 1.2044270833333326  15.959201388888891 1.8836805555555536  16.888020833333332 2.7604166666666674  L 18.580729166666668 1.0807291666666674  C 18.74565972222222 0.9157986111111094  18.94097222222222 0.8333333333333326  19.166666666666668 0.8333333333333326  C 19.392361111111114 0.8333333333333326  19.587673611111114 0.9157986111111094  19.752604166666668 1.0807291666666674  Z " fill-rule="nonzero" fill="#0054ae" stroke="none" transform="matrix(1 0 0 1 846 529 )" />
  </g>
</svg>