<?xml version="1.0" encoding="utf-8"?>
<svg version="1.1" xmlns:xlink="http://www.w3.org/1999/xlink" width="20px" height="19px" xmlns="http://www.w3.org/2000/svg">
  <g transform="matrix(1 0 0 1 -759 -530 )">
    <path d="M 2.9625000000000004 15.6044921875  C 3.1208333333333336 15.451931423611112  3.2 15.264322916666666  3.2 15.041666666666666  C 3.2 14.827256944444446  3.1208333333333336 14.641710069444446  2.9625000000000004 14.485026041666666  C 2.804166666666667 14.328342013888888  2.6166666666666667 14.25  2.4 14.25  C 2.175 14.25  1.9854166666666666 14.328342013888888  1.83125 14.485026041666666  C 1.6770833333333335 14.641710069444446  1.6 14.827256944444446  1.6 15.041666666666666  C 1.6 15.264322916666666  1.6770833333333335 15.451931423611112  1.83125 15.6044921875  C 1.9854166666666666 15.757052951388888  2.175 15.833333333333334  2.4 15.833333333333334  C 2.6166666666666667 15.833333333333334  2.804166666666667 15.757052951388888  2.9625000000000004 15.6044921875  Z M 4.9625 8.151692708333334  C 5.120833333333334 8.30837673611111  5.2 8.49392361111111  5.2 8.708333333333334  L 5.2 16.625  C 5.2 16.83940972222222  5.120833333333334 17.02495659722222  4.9625 17.181640625  C 4.804166666666667 17.33832465277778  4.616666666666667 17.416666666666664  4.4 17.416666666666664  L 0.8 17.416666666666664  C 0.5833333333333334 17.416666666666664  0.3958333333333333 17.33832465277778  0.2375 17.181640625  C 0.07916666666666666 17.02495659722222  0 16.83940972222222  0 16.625  L 0 8.708333333333334  C 0 8.49392361111111  0.07916666666666666 8.30837673611111  0.2375 8.151692708333334  C 0.3958333333333333 7.995008680555556  0.5833333333333334 7.916666666666666  0.8 7.916666666666666  L 4.4 7.916666666666666  C 4.616666666666667 7.916666666666666  4.804166666666667 7.995008680555556  4.9625 8.151692708333334  Z M 19.2875 7.038411458333334  C 19.7625 7.508463541666666  20 8.065104166666666  20 8.708333333333334  C 20 9.417534722222221  19.770833333333336 10.031901041666668  19.3125 10.551432291666668  C 19.437500000000004 10.914279513888888  19.5 11.227647569444445  19.5 11.491536458333332  C 19.525000000000002 12.118272569444445  19.34583333333334 12.68315972222222  18.9625 13.186197916666668  C 19.104166666666668 13.64800347222222  19.104166666666668 14.13042534722222  18.9625 14.633463541666666  C 18.8375 15.103515625  18.6125 15.491102430555554  18.2875 15.796223958333334  C 18.3625 16.719835069444446  18.158333333333335 17.466145833333336  17.675 18.03515625  C 17.14166666666667 18.66189236111111  16.320833333333333 18.983506944444446  15.2125 19  L 14.762500000000001 19  L 13.8125 19  L 13.600000000000001 19  C 13.049999999999999 19  12.450000000000001 18.93608940972222  11.799999999999999 18.808268229166664  C 11.15 18.68044704861111  10.64375 18.560872395833336  10.28125 18.449544270833336  C 9.91875 18.338216145833336  9.416666666666668 18.17534722222222  8.774999999999999 17.9609375  C 7.75 17.606336805555554  7.091666666666667 17.424913194444446  6.800000000000001 17.416666666666664  C 6.583333333333334 17.40842013888889  6.395833333333334 17.328016493055554  6.237500000000001 17.175455729166664  C 6.079166666666667 17.02289496527778  6.000000000000001 16.83940972222222  6 16.625  L 6 8.695963541666666  C 6.000000000000001 8.489800347222221  6.075 8.310438368055554  6.2250000000000005 8.157877604166666  C 6.375000000000001 8.005316840277779  6.554166666666667 7.920789930555554  6.7625 7.904296875  C 6.9625 7.887803819444442  7.279166666666668 7.644531249999998  7.7125 7.174479166666666  C 8.145833333333334 6.704427083333332  8.566666666666666 6.205512152777776  8.975 5.677734375  C 9.541666666666668 4.960286458333334  9.962500000000002 4.465494791666666  10.237499999999999 4.193359375  C 10.387500000000001 4.044921875  10.516666666666667 3.847005208333334  10.625 3.599609375  C 10.733333333333334 3.352213541666666  10.806249999999999 3.152235243055554  10.84375 2.999674479166666  C 10.88125 2.847113715277776  10.9375 2.59765625  11.012500000000001 2.251302083333334  C 11.070833333333335 1.9296875  11.122916666666669 1.678168402777776  11.168750000000001 1.496744791666666  C 11.214583333333334 1.315321180555554  11.295833333333334 1.100911458333334  11.412500000000001 0.853515625  C 11.529166666666669 0.606119791666666  11.670833333333334 0.399956597222222  11.8375 0.23502604166666596  C 11.995833333333334 0.07834201388888795  12.183333333333335 0  12.4 0  C 12.783333333333333 0  13.127083333333333 0.043294270833334036  13.431249999999999 0.1298828125  C 13.73541666666667 0.21647135416666596  13.985416666666667 0.3236762152777759  14.18125 0.45149739583333404  C 14.377083333333333 0.579318576388888  14.54375 0.746310763888888  14.681249999999999 0.952473958333334  C 14.818750000000001 1.158637152777776  14.918750000000001 1.344184027777776  14.98125 1.509114583333334  C 15.04375 1.674045138888888  15.09375 1.880208333333334  15.131250000000001 2.127604166666666  C 15.16875 2.375  15.189583333333335 2.560546875  15.19375 2.684244791666666  C 15.197916666666668 2.807942708333334  15.2 2.96875  15.2 3.166666666666666  C 15.2 3.480034722222222  15.16041666666667 3.793402777777776  15.081249999999999 4.106770833333334  C 15.002083333333333 4.4201388888888875  14.922916666666667 4.667534722222222  14.84375 4.848958333333334  C 14.764583333333334 5.030381944444442  14.65 5.261284722222222  14.5 5.541666666666666  C 14.475 5.591145833333334  14.433333333333334 5.665364583333334  14.375 5.764322916666666  C 14.316666666666668 5.86328125  14.270833333333336 5.953993055555554  14.2375 6.036458333333334  C 14.20416666666667 6.11892361111111  14.170833333333334 6.217881944444442  14.137500000000001 6.333333333333334  L 17.6 6.333333333333334  C 18.25 6.333333333333334  18.8125 6.568359375  19.2875 7.038411458333334  Z " fill-rule="nonzero" fill="#aaaaaa" stroke="none" transform="matrix(1 0 0 1 759 530 )" />
  </g>
</svg>