<?xml version="1.0" encoding="utf-8"?>
<svg version="1.1" xmlns:xlink="http://www.w3.org/1999/xlink" width="25px" height="25px" xmlns="http://www.w3.org/2000/svg">
  <g transform="matrix(1 0 0 1 -47 -116 )">
    <path d="M 24.007161458333336 7.649739583333334  C 24.669053819444443 9.190538194444445  25 10.807291666666666  25 12.5  C 25 14.192708333333332  24.669053819444443 15.809461805555552  24.007161458333336 17.350260416666668  C 23.345269097222225 18.89105902777778  22.45551215277778 20.22026909722222  21.337890625 21.337890625  C 20.220269097222225 22.45551215277778  18.89105902777778 23.34526909722222  17.350260416666664 24.007161458333336  C 15.809461805555557 24.669053819444446  14.192708333333334 25  12.5 25  C 10.633680555555557 25  8.85959201388889 24.606662326388886  7.177734375 23.819986979166664  C 5.495876736111112 23.033311631944446  4.063585069444445 21.923828125  2.880859375 20.491536458333336  C 2.8049045138888893 20.383029513888886  2.7696397569444446 20.260959201388886  2.775065104166667 20.125325520833336  C 2.7804904513888893 19.98969184027778  2.826605902777778 19.87847222222222  2.913411458333333 19.791666666666664  L 5.143229166666666 17.545572916666668  C 5.251736111111112 17.447916666666668  5.387369791666666 17.399088541666668  5.550130208333334 17.399088541666668  C 5.723741319444445 17.420789930555554  5.848524305555556 17.48589409722222  5.924479166666666 17.594401041666668  C 6.716579861111112 18.62521701388889  7.687717013888889 19.422743055555554  8.837890625 19.986979166666664  C 9.988064236111112 20.55121527777778  11.208767361111112 20.833333333333336  12.5 20.833333333333336  C 13.628472222222223 20.833333333333336  14.705403645833334 20.613606770833336  15.730794270833334 20.174153645833336  C 16.756184895833336 19.734700520833336  17.643229166666664 19.140625  18.391927083333336 18.391927083333332  C 19.140625 17.643229166666668  19.734700520833336 16.756184895833332  20.174153645833336 15.730794270833332  C 20.613606770833336 14.705403645833332  20.833333333333336 13.628472222222221  20.833333333333336 12.5  C 20.833333333333336 11.371527777777777  20.613606770833336 10.294596354166666  20.174153645833336 9.269205729166666  C 19.734700520833336 8.243815104166666  19.140625 7.356770833333334  18.391927083333336 6.608072916666666  C 17.643229166666664 5.859375  16.756184895833336 5.265299479166666  15.730794270833334 4.825846354166666  C 14.705403645833334 4.386393229166666  13.628472222222223 4.166666666666666  12.5 4.166666666666666  C 11.436631944444446 4.166666666666666  10.416666666666668 4.359266493055555  9.440104166666668 4.744466145833334  C 8.463541666666668 5.129665798611108  7.595486111111112 5.680338541666666  6.8359375 6.396484375  L 9.065755208333332 8.642578125  C 9.402126736111112 8.968098958333334  9.478081597222223 9.342447916666666  9.293619791666668 9.765625  C 9.109157986111112 10.199652777777779  8.7890625 10.416666666666666  8.333333333333332 10.416666666666666  L 1.0416666666666665 10.416666666666666  C 0.7595486111111112 10.416666666666666  0.515407986111111 10.313585069444445  0.30924479166666663 10.107421875  C 0.10308159722222222 9.901258680555555  0 9.657118055555555  0 9.375  L 0 2.0833333333333344  C 0 1.6276041666666656  0.21701388888888887 1.3075086805555554  0.6510416666666667 1.123046875  C 1.07421875 0.938585069444442  1.4485677083333335 1.0145399305555554  1.7740885416666667 1.3509114583333344  L 3.8899739583333335 3.4505208333333344  C 5.050998263888889 2.354600694444442  6.377495659722222 1.5055338541666656  7.869466145833333 0.9033203125  C 9.361436631944446 0.30110677083333426  10.904947916666668 0  12.5 0  C 14.192708333333334 0  15.809461805555557 0.33094618055555525  17.350260416666664 0.9928385416666657  C 18.89105902777778 1.6547309027777763  20.220269097222225 2.544487847222221  21.337890625 3.662109375  C 22.45551215277778 4.779730902777776  23.345269097222225 6.108940972222221  24.007161458333336 7.649739583333334  Z M 14.436848958333334 7.438151041666666  C 14.534505208333334 7.535807291666666  14.583333333333334 7.660590277777776  14.583333333333334 7.8125  L 14.583333333333334 15.104166666666668  C 14.583333333333334 15.25607638888889  14.534505208333334 15.380859375  14.436848958333334 15.478515625  C 14.339192708333334 15.576171875  14.214409722222223 15.625  14.0625 15.625  L 8.854166666666668 15.625  C 8.702256944444446 15.625  8.577473958333332 15.576171875  8.479817708333332 15.478515625  C 8.382161458333332 15.380859375  8.333333333333332 15.25607638888889  8.333333333333332 15.104166666666668  L 8.333333333333332 14.0625  C 8.333333333333332 13.910590277777779  8.382161458333332 13.785807291666668  8.479817708333332 13.688151041666668  C 8.577473958333332 13.590494791666668  8.702256944444446 13.541666666666668  8.854166666666668 13.541666666666668  L 12.5 13.541666666666668  L 12.5 7.8125  C 12.5 7.660590277777776  12.548828125 7.535807291666666  12.646484375 7.438151041666666  C 12.744140625000004 7.340494791666666  12.868923611111112 7.291666666666666  13.020833333333334 7.291666666666666  L 14.0625 7.291666666666666  C 14.214409722222223 7.291666666666666  14.339192708333334 7.340494791666666  14.436848958333334 7.438151041666666  Z " fill-rule="nonzero" fill="#ffffff" stroke="none" transform="matrix(1 0 0 1 47 116 )" />
  </g>
</svg>