<?xml version="1.0" encoding="utf-8"?>
<svg version="1.1" xmlns:xlink="http://www.w3.org/1999/xlink" width="13px" height="13px" xmlns="http://www.w3.org/2000/svg">
  <g transform="matrix(1 0 0 1 -826 -54 )">
    <path d="M 8.590494791666666 10.757161458333334  C 8.641276041666666 10.706380208333334  8.666666666666666 10.641493055555555  8.666666666666666 10.5625  L 8.666666666666666 9.208333333333332  C 8.666666666666666 9.129340277777777  8.641276041666666 9.064453125  8.590494791666666 9.013671875  C 8.539713541666666 8.962890625  8.47482638888889 8.9375  8.395833333333334 8.9375  L 7.583333333333334 8.9375  L 7.583333333333334 4.604166666666666  C 7.583333333333334 4.525173611111112  7.557942708333334 4.460286458333334  7.507161458333334 4.409505208333334  C 7.456380208333334 4.358723958333334  7.391493055555556 4.333333333333334  7.3125 4.333333333333334  L 4.604166666666667 4.333333333333334  C 4.525173611111112 4.333333333333334  4.460286458333333 4.358723958333334  4.409505208333333 4.409505208333334  C 4.358723958333333 4.460286458333334  4.333333333333333 4.525173611111112  4.333333333333333 4.604166666666666  L 4.333333333333333 5.958333333333334  C 4.333333333333333 6.037326388888888  4.358723958333333 6.102213541666666  4.409505208333333 6.152994791666666  C 4.460286458333333 6.203776041666666  4.525173611111112 6.229166666666666  4.604166666666667 6.229166666666666  L 5.416666666666667 6.229166666666666  L 5.416666666666667 8.9375  L 4.604166666666667 8.9375  C 4.525173611111112 8.9375  4.460286458333333 8.962890625  4.409505208333333 9.013671875  C 4.358723958333333 9.064453125  4.333333333333333 9.129340277777777  4.333333333333333 9.208333333333332  L 4.333333333333333 10.5625  C 4.333333333333333 10.641493055555555  4.358723958333333 10.706380208333334  4.409505208333333 10.757161458333334  C 4.460286458333333 10.807942708333334  4.525173611111112 10.833333333333334  4.604166666666667 10.833333333333334  L 8.395833333333334 10.833333333333334  C 8.47482638888889 10.833333333333334  8.539713541666666 10.807942708333334  8.590494791666666 10.757161458333334  Z M 7.507161458333334 3.173828125  C 7.557942708333334 3.123046875  7.583333333333334 3.058159722222221  7.583333333333334 2.979166666666666  L 7.583333333333334 1.625  C 7.583333333333334 1.5460069444444438  7.557942708333334 1.481119791666666  7.507161458333334 1.430338541666666  C 7.456380208333334 1.379557291666666  7.391493055555556 1.354166666666666  7.3125 1.354166666666666  L 5.6875 1.354166666666666  C 5.608506944444445 1.354166666666666  5.543619791666667 1.379557291666666  5.492838541666667 1.430338541666666  C 5.442057291666667 1.481119791666666  5.416666666666667 1.5460069444444438  5.416666666666667 1.625  L 5.416666666666667 2.979166666666666  C 5.416666666666667 3.058159722222221  5.442057291666667 3.123046875  5.492838541666667 3.173828125  C 5.543619791666667 3.224609375  5.608506944444445 3.25  5.6875 3.25  L 7.3125 3.25  C 7.391493055555556 3.25  7.456380208333334 3.224609375  7.507161458333334 3.173828125  Z M 12.128255208333334 3.2373046875  C 12.709418402777777 4.23318142361111  13 5.320746527777776  13 6.5  C 13 7.679253472222222  12.709418402777777 8.766818576388888  12.128255208333334 9.7626953125  C 11.54709201388889 10.75857204861111  10.75857204861111 11.54709201388889  9.7626953125 12.128255208333334  C 8.76681857638889 12.709418402777779  7.679253472222222 13  6.5 13  C 5.320746527777779 13  4.233181423611112 12.709418402777779  3.2373046875 12.128255208333334  C 2.2414279513888893 11.54709201388889  1.4529079861111112 10.75857204861111  0.8717447916666667 9.7626953125  C 0.2905815972222222 8.766818576388888  0 7.679253472222222  0 6.5  C 0 5.320746527777776  0.2905815972222222 4.23318142361111  0.8717447916666667 3.2373046875  C 1.4529079861111112 2.241427951388889  2.2414279513888893 1.4529079861111098  3.2373046875 0.8717447916666662  C 4.233181423611112 0.2905815972222211  5.320746527777779 0  6.5 0  C 7.679253472222222 0  8.76681857638889 0.2905815972222211  9.7626953125 0.8717447916666662  C 10.75857204861111 1.4529079861111098  11.54709201388889 2.241427951388889  12.128255208333334 3.2373046875  Z " fill-rule="nonzero" fill="#0054ae" stroke="none" transform="matrix(1 0 0 1 826 54 )" />
  </g>
</svg>