<?xml version="1.0" encoding="utf-8"?>
<svg version="1.1" xmlns:xlink="http://www.w3.org/1999/xlink" width="30px" height="30px" xmlns="http://www.w3.org/2000/svg">
  <g transform="matrix(1 0 0 1 -44 -169 )">
    <path d="M 23.37890625 17.128906250000004  C 23.626302083333332 16.881510416666664  23.75 16.588541666666664  23.75 16.250000000000004  L 23.75 13.750000000000002  C 23.75 13.411458333333332  23.626302083333332 13.118489583333332  23.37890625 12.871093750000002  C 23.13151041666667 12.623697916666668  22.83854166666667 12.499999999999998  22.5 12.499999999999998  L 17.5 12.499999999999998  L 17.5 7.5  C 17.5 7.16145833333333  17.376302083333336 6.86848958333333  17.12890625 6.62109375  C 16.881510416666668 6.373697916666666  16.588541666666668 6.250000000000001  16.25 6.250000000000001  L 13.75 6.250000000000001  C 13.411458333333336 6.250000000000001  13.118489583333336 6.373697916666666  12.87109375 6.62109375  C 12.623697916666668 6.86848958333333  12.5 7.16145833333333  12.5 7.5  L 12.5 12.499999999999998  L 7.5 12.499999999999998  C 7.161458333333334 12.499999999999998  6.868489583333334 12.623697916666668  6.62109375 12.871093750000002  C 6.373697916666667 13.118489583333332  6.25 13.411458333333332  6.25 13.750000000000002  L 6.25 16.250000000000004  C 6.25 16.588541666666664  6.373697916666667 16.881510416666664  6.62109375 17.128906250000004  C 6.868489583333334 17.376302083333332  7.161458333333334 17.499999999999996  7.5 17.499999999999996  L 12.5 17.499999999999996  L 12.5 22.5  C 12.5 22.838541666666668  12.623697916666668 23.131510416666668  12.87109375 23.37890625  C 13.118489583333336 23.626302083333332  13.411458333333336 23.75  13.75 23.75  L 16.25 23.75  C 16.588541666666668 23.75  16.881510416666668 23.626302083333332  17.12890625 23.37890625  C 17.376302083333336 23.131510416666668  17.5 22.838541666666668  17.5 22.5  L 17.5 17.499999999999996  L 22.5 17.499999999999996  C 22.83854166666667 17.499999999999996  23.13151041666667 17.376302083333332  23.37890625 17.128906250000004  Z M 27.98828125 7.470703125  C 29.32942708333333 9.76888020833333  30 12.278645833333329  30 15  C 30 17.721354166666668  29.32942708333333 20.231119791666664  27.98828125 22.529296875  C 26.64713541666667 24.827473958333332  24.827473958333332 26.647135416666668  22.529296875 27.98828125  C 20.23111979166667 29.329427083333336  17.721354166666668 30  15 30  C 12.278645833333334 30  9.768880208333334 29.329427083333336  7.470703125 27.98828125  C 5.172526041666667 26.647135416666668  3.352864583333334 24.827473958333332  2.01171875 22.529296875  C 0.6705729166666665 20.231119791666664  0 17.721354166666668  0 15  C 0 12.278645833333329  0.6705729166666665 9.76888020833333  2.01171875 7.470703125  C 3.352864583333334 5.172526041666666  5.172526041666667 3.3528645833333304  7.470703125 2.011718749999999  C 9.768880208333334 0.6705729166666641  12.278645833333334 0  15 0  C 17.721354166666668 0  20.23111979166667 0.6705729166666641  22.529296875 2.011718749999999  C 24.827473958333332 3.3528645833333304  26.64713541666667 5.172526041666666  27.98828125 7.470703125  Z " fill-rule="nonzero" fill="#333333" stroke="none" transform="matrix(1 0 0 1 44 169 )" />
  </g>
</svg>