<?xml version="1.0" encoding="UTF-8" standalone="no"?>
<svg
   version="1.1"
   width="30px"
   height="30px"
   id="svg1"
   xmlns="http://www.w3.org/2000/svg"
   xmlns:svg="http://www.w3.org/2000/svg">
  <g
     transform="matrix(1 0 0 1 -1173 -51 )"
     id="g1">
    <path
       d="M 1.9648438,0 C 1.4246657,0 0.96084411,0.19149964 0.57617188,0.57617188 0.19149964,0.96084411 0,1.4246657 0,1.9648438 v 4.7128906 8.6445316 4.71289 c 0,0.540179 0.19147226,1.004 0.57617188,1.388672 C 0.96087149,21.808501 1.4246443,22 1.9648438,22 h 4.7128906 8.6445316 4.71289 c 0.540178,0 1.004,-0.1915 1.388672,-0.576172 C 21.8085,21.039156 22,20.575334 22,20.035156 V 15.322266 6.6777344 1.9648438 C 22,1.4246653 21.808528,0.96084449 21.423828,0.57617188 21.039129,0.19149926 20.575356,0 20.035156,0 H 15.322266 6.6777344 Z M 1.78125,1.6386719 c 0.050441,0.00665 0.1062675,0.092886 0.1660156,0.3085937 C 1.5896433,1.8482089 1.6140242,1.7609758 1.6875,1.6875 1.716657,1.658343 1.748064,1.634295 1.78125,1.6386719 Z m 18.4375,0 c 0.03318,-0.00438 0.06461,0.019671 0.09375,0.048828 0.07371,0.073473 0.0979,0.1607085 -0.259766,0.2597656 0.05975,-0.2157071 0.11558,-0.3019406 0.166016,-0.3085936 z M 2,20 V 2 h 18 v 18 z m -0.052734,0.05273 C 1.8482057,20.410356 1.7609257,20.385976 1.6875,20.3125 1.6137908,20.239027 1.5896026,20.151792 1.9472656,20.052734 Z m 18.1054684,0 c 0.357623,0.09906 0.333242,0.18629 0.259766,0.259766 -0.07348,0.07348 -0.160709,0.09786 -0.259766,-0.259766 z"
       fill-rule="nonzero" fill="#d7d7d7" stroke="none" transform="matrix(1 0 0 1 1173 51 )" />
  </g>
</svg>
