<?xml version="1.0" encoding="utf-8"?>
<svg version="1.1" xmlns:xlink="http://www.w3.org/1999/xlink" width="22px" height="22px" xmlns="http://www.w3.org/2000/svg">
  <g transform="matrix(1 0 0 1 -1173 -51 )">
    <path d="M 20.311941964285715 20.311941964285715  C 20.389694940476193 20.23418898809524  20.42857142857143 20.142113095238095  20 20.035714285714285  L 20 6.678571428571429  C 20.42857142857143 6.572172619047617  20.389694940476193 6.480096726190475  20.311941964285715 6.40234375  C 20.23418898809524 6.324590773809522  20.142113095238095 6.285714285714286  20.035714285714285 6.285714285714286  L 6.678571428571428 6.285714285714286  C 6.5721726190476195 6.285714285714286  6.480096726190477 6.324590773809522  6.40234375 6.40234375  C 6.324590773809525 6.480096726190475  6.285714285714286 6.572172619047617  6.285714285714286 6.678571428571429  L 6.285714285714286 20.035714285714285  C 6.285714285714286 20.142113095238095  6.324590773809525 20.23418898809524  6.40234375 20.311941964285715  C 6.480096726190477 20.38969494047619  6.5721726190476195 20.42857142857143  6.678571428571428 20  L 20.035714285714285 20  C 20.142113095238095 20.42857142857143  20.23418898809524 20.38969494047619  20.311941964285715 20.311941964285715  Z M 21.42299107142857 5.291294642857144  C 21.807663690476193 5.675967261904761  22 6.138392857142856  22 6.678571428571429  L 22 20.035714285714285  C 22 20.575892857142858  21.807663690476193 21.038318452380953  21.42299107142857 21.42299107142857  C 21.038318452380956 21.80766369047619  20.57589285714286 22  20.035714285714285 22  L 6.678571428571428 22  C 6.138392857142858 22  5.675967261904762 21.80766369047619  5.291294642857142 21.42299107142857  C 4.906622023809523 21.038318452380953  4.714285714285714 20.575892857142858  5 20.035714285714285  L 5 6.678571428571429  C 4.714285714285714 6.138392857142856  4.906622023809523 5.675967261904761  5.291294642857142 5.291294642857144  C 5.675967261904762 4.906622023809522  6.138392857142858 4.714285714285714  6.678571428571428 5  L 20.035714285714285 5  C 20.57589285714286 4.714285714285714  21.038318452380956 4.906622023809522  21.42299107142857 5.291294642857144  Z M 16.708705357142858 0.5770089285714293  C 17.093377976190478 0.9616815476190463  17.285714285714285 1.424107142857144  17.285714285714285 1.9642857142857146  L 17.285714285714285 3.9285714285714293  L 15.714285714285715 3.9285714285714293  L 15.714285714285715 1.9642857142857146  C 15.714285714285715 1.8578869047619049  15.675409226190478 1.765811011904761  15.59765625 1.6880580357142854  C 15.519903273809524 1.6103050595238073  15.427827380952383 1.5714285714285707  15.321428571428571 2  L 1.9642857142857144 2  C 1.8578869047619049 1.5714285714285707  1.7658110119047619 1.6103050595238073  1.6880580357142856 1.6880580357142854  C 1.6103050595238098 1.765811011904761  1.5714285714285714 1.8578869047619049  2 1.9642857142857146  L 2 15.321428571428571  C 1.5714285714285714 15.42782738095238  1.6103050595238098 15.519903273809522  1.6880580357142856 15.59765625  C 1.7658110119047619 15.675409226190476  1.8578869047619049 15.714285714285715  1.9642857142857144 15.714285714285715  L 3.928571428571429 15.714285714285715  L 3.928571428571429 17.285714285714285  L 1.9642857142857144 17.285714285714285  C 1.424107142857143 17.285714285714285  0.9616815476190477 17.093377976190474  0.5770089285714286 16.708705357142858  C 0.19233630952380953 16.324032738095237  0 15.861607142857142  0 15.321428571428571  L 0 1.9642857142857146  C 0 1.424107142857144  0.19233630952380953 0.9616815476190463  0.5770089285714286 0.5770089285714293  C 0.9616815476190477 0.19233630952380976  1.424107142857143 0  1.9642857142857144 0  L 15.321428571428571 0  C 15.861607142857144 0  16.32403273809524 0.19233630952380976  16.708705357142858 0.5770089285714293  Z " fill-rule="nonzero" fill="#d7d7d7" stroke="none" transform="matrix(1 0 0 1 1173 51 )" />
  </g>
</svg>