<?xml version="1.0" encoding="utf-8"?>
<svg version="1.1" xmlns:xlink="http://www.w3.org/1999/xlink" width="20px" height="15px" xmlns="http://www.w3.org/2000/svg">
  <g transform="matrix(1 0 0 1 0 29 )">
    <path d="M 13.234375 8.080610795454545  C 13.300347222222225 8.013139204545453  13.333333333333332 7.933238636363635  13.333333333333332 7.840909090909091  C 13.333333333333332 7.741477272727273  13.302083333333334 7.659801136363638  13.239583333333334 7.595880681818182  L 9.572916666666666 3.845880681818181  C 9.510416666666666 3.7819602272727266  9.430555555555557 3.75  9.333333333333334 3.75  C 9.23611111111111 3.75  9.156250000000002 3.7819602272727266  9.09375 3.845880681818181  L 5.4375 7.585227272727272  C 5.368055555555556 7.670454545454545  5.333333333333333 7.755681818181818  5.333333333333333 7.840909090909091  C 5.333333333333333 7.940340909090908  5.364583333333334 8.022017045454545  5.427083333333334 8.0859375  C 5.489583333333333 8.149857954545455  5.5694444444444455 8.181818181818182  5.666666666666666 8.181818181818182  L 8 8.181818181818182  L 8 11.931818181818182  C 8 12.024147727272727  8.03298611111111 12.104048295454545  8.098958333333334 12.171519886363637  C 8.164930555555557 12.238991477272727  8.243055555555557 12.272727272727272  8.333333333333334 12.272727272727272  L 10.333333333333334 12.272727272727272  C 10.423611111111112 12.272727272727272  10.501736111111112 12.238991477272727  10.567708333333334 12.171519886363637  C 10.633680555555555 12.104048295454545  10.666666666666666 12.024147727272727  10.666666666666666 11.931818181818182  L 10.666666666666666 8.181818181818182  L 13 8.181818181818182  C 13.090277777777779 8.181818181818182  13.168402777777779 8.148082386363637  13.234375 8.080610795454545  Z M 19.130208333333336 8.36825284090909  C 19.710069444444446 9.110440340909092  20.000000000000004 9.957386363636362  20 10.90909090909091  C 20.000000000000004 12.038352272727272  19.609375000000004 13.002485795454545  18.828125 13.801491477272728  C 18.046875000000004 14.60049715909091  17.104166666666668 15  16 15  L 4.666666666666667 15  C 3.381944444444444 15  2.282986111111111 14.533025568181818  1.3697916666666667 13.599076704545455  C 0.4565972222222222 12.66512784090909  0 11.541193181818183  0 10.227272727272728  C 0 9.30397727272727  0.24305555555555555 8.451704545454547  0.7291666666666667 7.670454545454545  C 1.2152777777777777 6.889204545454543  1.8680555555555556 6.303267045454543  2.6875 5.912642045454545  C 2.673611111111111 5.699573863636364  2.6666666666666665 5.546874999999999  2.6666666666666665 5.454545454545455  C 2.6666666666666665 3.9488636363636354  3.1875 2.6633522727272734  4.229166666666667 1.5980113636363642  C 5.270833333333334 0.5326704545454547  6.527777777777779 0  8 0  C 9.083333333333334 0  10.074652777777779 0.3089488636363641  10.973958333333334 0.9268465909090906  C 11.87326388888889 1.5447443181818188  12.527777777777779 2.365056818181819  12.9375 3.387784090909091  C 13.430555555555557 2.9474431818181808  14.006944444444445 2.7272727272727266  14.666666666666666 2.7272727272727266  C 15.402777777777779 2.7272727272727266  16.03125 2.9936079545454546  16.552083333333336 3.526278409090909  C 17.072916666666668 4.058948863636364  17.333333333333336 4.701704545454544  17.333333333333336 5.454545454545455  C 17.333333333333336 5.994318181818181  17.19097222222222 6.484374999999999  16.90625 6.924715909090909  C 17.80902777777778 7.144886363636363  18.55034722222222 7.62606534090909  19.130208333333336 8.36825284090909  Z " fill-rule="nonzero" fill="#0054ae" stroke="none" transform="matrix(1 0 0 1 0 -29 )" />
  </g>
</svg>