<?xml version="1.0" encoding="utf-8"?>
<svg version="1.1" xmlns:xlink="http://www.w3.org/1999/xlink" width="20px" height="16px" xmlns="http://www.w3.org/2000/svg">
  <g transform="matrix(1 0 0 1 -672 -60 )">
    <path d="M 9.327354260089686 12  L 9.955156950672645 12  L 11.255605381165918 10.681818181818182  L 9.551569506726457 8.954545454545453  L 8.251121076233185 10.272727272727273  L 8.251121076233185 10.90909090909091  L 9.327354260089686 10.90909090909091  L 9.327354260089686 12  Z M 14.876681614349776 4.193181818181818  C 15.003736920777282 4.064393939393938  15.00747384155456 3.9393939393939377  14.887892376681615 3.8181818181818183  C 14.76831091180867 3.6969696969696955  14.644992526158447 3.7007575757575744  14.51793721973094 3.829545454545455  L 10.594170403587444 7.806818181818182  C 10.46711509715994 7.9356060606060606  10.46337817638266 8.060606060606059  10.582959641255606 8.181818181818182  C 10.702541106128551 8.303030303030303  10.825859491778775 8.299242424242422  10.95291479820628 8.170454545454547  L 14.876681614349776 4.193181818181818  Z M 15.560538116591928 10.238636363636363  C 15.71001494768311 10.299242424242422  15.784753363228699 10.40909090909091  15.784753363228699 10.568181818181818  L 15.784753363228699 12.727272727272727  C 15.784753363228699 13.628787878787879  15.468983557548581 14.399621212121213  14.83744394618834 15.039772727272727  C 14.205904334828103 15.679924242424242  13.44544095665172 16  12.556053811659194 16  L 3.2286995515695067 16  C 2.3393124065769806 16  1.5788490284005978 15.679924242424242  0.9473094170403586 15.039772727272727  C 0.31576980568011953 14.399621212121213  0 13.628787878787879  0 12.727272727272727  L 0 3.2727272727272734  C 0 2.3712121212121193  0.31576980568011953 1.6003787878787872  0.9473094170403586 0.9602272727272734  C 1.5788490284005978 0.320075757575756  2.3393124065769806 0  3.2286995515695067 0  L 12.556053811659194 0  C 13.026905829596414 0  13.464125560538116 0.09469696969696884  13.867713004484305 0.2840909090909083  C 13.97982062780269 0.33712121212121104  14.04708520179372 0.42424242424242387  14.0695067264574 0.545454545454545  C 14.091928251121075 0.6742424242424239  14.05829596412556 0.7840909090909083  13.968609865470851 0.875  L 13.419282511210762 1.4318181818181817  C 13.314648729446937 1.5378787878787872  13.195067264573993 1.5681818181818183  13.060538116591928 1.5227272727272734  C 12.888639760837071 1.4772727272727266  12.720478325859492 1.454545454545455  12.556053811659194 1.454545454545455  L 3.2286995515695067 1.454545454545455  C 2.73542600896861 1.454545454545455  2.3131539611360243 1.632575757575756  1.961883408071749 1.9886363636363633  C 1.610612855007474 2.344696969696969  1.4349775784753362 2.7727272727272734  1.4349775784753362 3.2727272727272734  L 1.4349775784753362 12.727272727272727  C 1.4349775784753362 13.227272727272727  1.610612855007474 13.655303030303028  1.961883408071749 14.011363636363637  C 2.3131539611360243 14.367424242424242  2.73542600896861 14.545454545454545  3.2286995515695067 14.545454545454545  L 12.556053811659194 14.545454545454545  C 13.04932735426009 14.545454545454545  13.471599402092675 14.367424242424242  13.822869955156952 14.011363636363637  C 14.174140508221226 13.655303030303028  14.349775784753362 13.227272727272727  14.349775784753362 12.727272727272727  L 14.349775784753362 11.295454545454547  C 14.349775784753362 11.196969696969695  14.38340807174888 11.113636363636363  14.45067264573991 11.045454545454547  L 15.168161434977579 10.318181818181818  C 15.280269058295964 10.204545454545453  15.411061285500748 10.178030303030303  15.560538116591928 10.238636363636363  Z M 7.174887892376681 9.818181818181818  L 14.708520179372197 2.1818181818181817  L 17.937219730941706 5.454545454545455  L 10.403587443946186 13.09090909090909  L 7.174887892376681 13.09090909090909  L 7.174887892376681 9.818181818181818  Z M 20 2.9090909090909083  C 20 3.212121212121211  19.895366218236173 3.469696969696969  19.68609865470852 3.6818181818181817  L 18.654708520179373 4.727272727272727  L 15.426008968609866 1.454545454545455  L 16.457399103139014 0.4090909090909083  C 16.666666666666668 0.19696969696969546  16.920777279521676 0.09090909090909172  17.219730941704036 0.09090909090909172  C 17.5186846038864 0.09090909090909172  17.772795216741407 0.19696969696969546  17.98206278026906 0.4090909090909083  L 19.68609865470852 2.1363636363636367  C 19.895366218236173 2.348484848484846  20 2.6060606060606055  20 2.9090909090909083  Z " fill-rule="nonzero" fill="#0054ae" stroke="none" transform="matrix(1 0 0 1 672 60 )" />
  </g>
</svg>