<?xml version="1.0" encoding="UTF-8" standalone="no"?>
<!-- Created with Inkscape (http://www.inkscape.org/) -->
<svg width="7.9375mm" height="7.9375mm" viewBox="0 0 7.9375 7.9375" version="1.1" id="svg1" xml:space="preserve" inkscape:version="1.4.2 (f4327f4, 2025-05-13)" sodipodi:docname="mcp-icon.svg" inkscape:export-filename="mcp-icon.svg" inkscape:export-xdpi="96" inkscape:export-ydpi="96" xmlns:inkscape="http://www.inkscape.org/namespaces/inkscape" xmlns:sodipodi="http://sodipodi.sourceforge.net/DTD/sodipodi-0.dtd" xmlns="http://www.w3.org/2000/svg" xmlns:svg="http://www.w3.org/2000/svg">
	<sodipodi:namedview id="namedview1" pagecolor="#505050" bordercolor="#ffffff" borderopacity="1" inkscape:showpageshadow="0" inkscape:pageopacity="0" inkscape:pagecheckerboard="1" inkscape:deskcolor="#505050" inkscape:document-units="mm" inkscape:zoom="16.267265" inkscape:cx="448.72324" inkscape:cy="604.06589" inkscape:window-width="1920" inkscape:window-height="1009" inkscape:window-x="1912" inkscape:window-y="-8" inkscape:window-maximized="1" inkscape:current-layer="layer1">
		<inkscape:page x="0" y="0" width="7.9375" height="7.9375" id="page2" margin="0" bleed="0"/>
	</sodipodi:namedview>
	<defs id="defs1"/>
	<g inkscape:label="Layer 1" inkscape:groupmode="layer" id="layer1" transform="translate(-116.66608,-155.22737)">
		<g id="g4">
			<g id="g3">
				<path d="m 122.85176,159.75939 c 0.0655,-0.0654 0.0982,-0.14297 0.0982,-0.23254 v -0.66146 c 0,-0.0896 -0.0327,-0.16709 -0.0982,-0.23254 -0.0654,-0.0655 -0.14297,-0.0982 -0.23254,-0.0982 h -1.32292 v -1.32292 c 0,-0.0896 -0.0327,-0.16708 -0.0982,-0.23254 -0.0655,-0.0655 -0.14297,-0.0982 -0.23255,-0.0982 h -0.66146 c -0.0896,0 -0.16708,0.0327 -0.23254,0.0982 -0.0655,0.0655 -0.0982,0.14297 -0.0982,0.23254 v 1.32292 h -1.32292 c -0.0896,0 -0.16709,0.0327 -0.23255,0.0982 -0.0654,0.0654 -0.0982,0.14297 -0.0982,0.23254 v 0.66146 c 0,0.0896 0.0327,0.16709 0.0982,0.23254 0.0655,0.0655 0.14298,0.0982 0.23255,0.0982 h 1.32292 v 1.32291 c 0,0.0896 0.0327,0.16709 0.0982,0.23255 0.0655,0.0655 0.14297,0.0982 0.23254,0.0982 h 0.66146 c 0.0896,0 0.16709,-0.0327 0.23255,-0.0982 0.0654,-0.0655 0.0982,-0.14297 0.0982,-0.23255 v -1.32291 h 1.32292 c 0.0896,0 0.16709,-0.0327 0.23254,-0.0982 z m 1.21957,-2.5554 c 0.35484,0.60806 0.53226,1.27211 0.53226,1.99213 0,0.72002 -0.17742,1.38407 -0.53226,1.99213 -0.35485,0.60806 -0.8363,1.08951 -1.44436,1.44435 -0.60806,0.35485 -1.2721,0.53227 -1.99213,0.53227 -0.72002,0 -1.38406,-0.17742 -1.99212,-0.53227 -0.60806,-0.35484 -1.08951,-0.83629 -1.44436,-1.44435 -0.35484,-0.60806 -0.53227,-1.27211 -0.53227,-1.99213 0,-0.72002 0.17743,-1.38407 0.53227,-1.99213 0.35485,-0.60806 0.8363,-1.08951 1.44436,-1.44435 0.60806,-0.35485 1.2721,-0.53227 1.99212,-0.53227 0.72003,0 1.38407,0.17742 1.99213,0.53227 0.60806,0.35484 1.08951,0.83629 1.44436,1.44435 z" fill-rule="nonzero" fill="#0054ae" stroke="none" id="path2" style="stroke-width:0.264583"/>
				<circle style="fill:#0054ae;fill-opacity:1;stroke-width:0.264583" id="path3" cx="120.71375" cy="159.26486" r="3.4732807"/>
			</g>
			<g style="line-height:1;fill:#f9f9f9;fill-rule:evenodd" id="g2" transform="matrix(0.21961154,0,0,0.21961154,117.99952,156.57373)">
				<path d="m 15.688,2.343 a 2.588,2.588 0 0 0 -3.61,0 l -9.626,9.44 a 0.863,0.863 0 0 1 -1.203,0 0.823,0.823 0 0 1 0,-1.18 l 9.626,-9.44 a 4.313,4.313 0 0 1 6.016,0 4.116,4.116 0 0 1 1.204,3.54 4.3,4.3 0 0 1 3.609,1.18 l 0.05,0.05 a 4.115,4.115 0 0 1 0,5.9 l -8.706,8.537 a 0.274,0.274 0 0 0 0,0.393 l 1.788,1.754 a 0.823,0.823 0 0 1 0,1.18 0.863,0.863 0 0 1 -1.203,0 l -1.788,-1.753 a 1.92,1.92 0 0 1 0,-2.754 l 8.706,-8.538 a 2.47,2.47 0 0 0 0,-3.54 L 20.501,7.063 A 2.588,2.588 0 0 0 16.894,7.06 L 9.722,14.094 9.72,14.096 9.622,14.193 a 0.863,0.863 0 0 1 -1.204,0 0.823,0.823 0 0 1 0,-1.18 L 15.691,5.88 A 2.47,2.47 0 0 0 15.688,2.343 Z" id="path1-4" style="fill:#f9f9f9"/>
				<path d="m 14.485,4.703 a 0.823,0.823 0 0 0 0,-1.18 0.863,0.863 0 0 0 -1.204,0 l -7.119,6.982 a 4.115,4.115 0 0 0 0,5.9 4.314,4.314 0 0 0 6.016,0 l 7.12,-6.982 a 0.823,0.823 0 0 0 0,-1.18 0.863,0.863 0 0 0 -1.204,0 l -7.119,6.982 a 2.588,2.588 0 0 1 -3.61,0 2.47,2.47 0 0 1 0,-3.54 z" id="path2-5" style="fill:#f9f9f9"/>
			</g>
		</g>
	</g>
</svg>
