<?xml version="1.0" encoding="utf-8"?>
<svg version="1.1" xmlns:xlink="http://www.w3.org/1999/xlink" width="30px" height="29px" xmlns="http://www.w3.org/2000/svg">
  <g transform="matrix(1 0 0 1 -44 -580 )">
    <path d="M 29.64375 15.739158163265309  C 29.881250000000005 15.973426870748298  30.000000000000007 16.250850340136054  30 16.57142857142857  C 30.000000000000007 16.892006802721085  29.881250000000005 17.16943027210884  29.64375 17.403698979591837  C 29.406250000000004 17.63796768707483  29.125000000000004 17.755102040816325  28.799999999999997 17.755102040816325  L 24.599999999999998 17.755102040816325  C 24.599999999999998 19.863520408163264  24.181250000000002 21.651360544217685  23.34375 23.118622448979593  L 27.24375 26.98405612244898  C 27.481250000000003 27.218324829931976  27.6 27.49574829931973  27.6 27.816326530612244  C 27.6 28.136904761904763  27.481250000000003 28.414328231292515  27.24375 28.64859693877551  C 27.01875 28.882865646258505  26.7375 29  26.4 29  C 26.0625 29  25.78125 28.882865646258505  25.556250000000002 28.64859693877551  L 21.84375 25.005102040816325  C 21.78125 25.06675170068027  21.687500000000004 25.146896258503403  21.5625 25.245535714285715  C 21.437500000000004 25.344175170068027  21.175000000000004 25.51987670068027  20.775 25.772640306122447  C 20.375 26.025403911564627  19.96875 26.250425170068024  19.55625 26.447704081632654  C 19.14375 26.64498299319728  18.63125 26.82376700680272  18.018749999999997 26.98405612244898  C 17.40625 27.144345238095237  16.8 27.22448979591837  16 27.22448979591837  L 16 10.653061224489795  L 14 10.653061224489795  L 14 27.22448979591837  C 13.1625 27.22448979591837  12.528125000000001 27.14126275510204  11.896875 26.974808673469386  C 11.265625 26.808354591836736  10.721875 26.604910714285715  10.265625 26.364477040816325  C 9.809375000000001 26.12404336734694  9.396875000000001 25.883609693877553  9.028125000000001 25.643176020408163  C 8.659375 25.402742346938776  8.387500000000001 25.202380952380953  8.2125 25.04209183673469  L 7.93125 24.783163265306122  L 4.5 28.611607142857146  C 4.250000000000001 28.870535714285715  3.9500000000000006 29  3.5999999999999996 29  C 3.3 29  3.0312500000000004 28.901360544217688  2.79375 28.70408163265306  C 2.5562500000000004 28.482142857142854  2.4281249999999996 28.2078018707483  2.409375 27.881058673469386  C 2.390625 27.554315476190478  2.4875000000000003 27.26764455782313  2.6999999999999997 27.021045918367346  L 6.4875 22.822704081632654  C 5.762500000000001 21.41709183673469  5.3999999999999995 19.727891156462583  5.3999999999999995 17.755102040816325  L 1.2 17.755102040816325  C 0.8750000000000001 17.755102040816325  0.5937500000000001 17.63796768707483  0.35625 17.403698979591837  C 0.11875000000000004 17.16943027210884  0 16.892006802721085  0 16.57142857142857  C 0 16.250850340136054  0.11875000000000004 15.973426870748298  0.35625 15.739158163265309  C 0.5937500000000001 15.50488945578231  0.8750000000000001 15.387755102040813  1.2 15.387755102040813  L 5.3999999999999995 15.387755102040813  L 5.3999999999999995 9.950255102040817  L 2.15625 6.750637755102042  C 1.9187500000000002 6.5163690476190474  1.7999999999999998 6.238945578231291  1.7999999999999998 5.918367346938775  C 1.7999999999999998 5.597789115646254  1.9187500000000002 5.320365646258501  2.15625 5.086096938775509  C 2.3937500000000003 4.851828231292515  2.6750000000000003 4.7346938775510194  3 4.7346938775510194  C 3.325 4.7346938775510194  3.60625 4.851828231292515  3.8437499999999996 5.086096938775509  L 7.0874999999999995 8.285714285714285  L 22.9125 8.285714285714285  L 26.15625 5.086096938775509  C 26.393750000000004 4.851828231292515  26.675 4.7346938775510194  27 4.7346938775510194  C 27.325000000000003 4.7346938775510194  27.606250000000003 4.851828231292515  27.84375 5.086096938775509  C 28.081249999999997 5.320365646258501  28.2 5.597789115646254  28.2 5.918367346938775  C 28.2 6.238945578231291  28.081249999999997 6.5163690476190474  27.84375 6.750637755102042  L 24.599999999999998 9.950255102040817  L 24.599999999999998 15.387755102040813  L 28.799999999999997 15.387755102040813  C 29.125000000000004 15.387755102040813  29.406250000000004 15.50488945578231  29.64375 15.739158163265309  Z M 19.246875000000003 1.729272959183673  C 20.415625000000006 2.882121598639454  21 4.278486394557823  21 6  L 9 6  C 9 4.278486394557823  9.584375000000001 2.882121598639454  10.753125 1.729272959183673  C 11.921875 0.5764243197278889  13.3375 0  15 0  C 16.6625 0  18.078125 0.5764243197278889  19.246875000000003 1.729272959183673  Z " fill-rule="nonzero" fill="#0054ae" stroke="none" transform="matrix(1 0 0 1 44 580 )" />
  </g>
</svg>