<?xml version="1.0" encoding="utf-8"?>
<svg version="1.1" xmlns:xlink="http://www.w3.org/1999/xlink" width="33px" height="30px" xmlns="http://www.w3.org/2000/svg">
  <defs>
    <pattern id="BGPattern" patternUnits="userSpaceOnUse" alignment="0 0" imageRepeat="None" />
    <mask fill="white" id="Clip132">
      <path d="M 20.625 6.470588235294118  C 21.59732142857143 6.470588235294118  22.392857142857142 7.264705882352942  22.392857142857142 8.23529411764706  C 22.392857142857142 9.205882352941176  21.59732142857143 10  20.625 10  C 19.65267857142857 10  18.857142857142858 9.205882352941176  18.857142857142858 8.23529411764706  C 18.857142857142858 7.264705882352942  19.65267857142857 6.470588235294118  20.625 6.470588235294118  Z M 26.517857142857142 9.999999999999998  L 25.628035714285716 10  C 25.563214285714288 10.176470588235295  25.492500000000003 10.35294117647059  25.410000000000004 10.51764705882353  L 26.040535714285717 11.147058823529413  C 26.724107142857143 11.829411764705881  26.724107142857143 12.94705882352941  26.040535714285717 13.641176470588233  C 25.345178571428576 14.329411764705883  24.219642857142862 14.329411764705883  23.536071428571432 13.641176470588233  L 22.905535714285715 13.011764705882351  C 22.740535714285716 13.094117647058821  22.563750000000002 13.16470588235294  22.386964285714285 13.22941176470588  L 22.386964285714285 14.117647058823529  C 22.386964285714285 15.088235294117647  21.59142857142857 15.882352941176471  20.619107142857146 15.882352941176471  C 19.646785714285716 15.882352941176471  18.85125 15.088235294117647  18.85125 14.117647058823529  L 18.85125 13.22941176470588  C 18.674464285714286 13.16470588235294  18.49767857142857 13.094117647058821  18.33267857142857 13.011764705882351  L 17.702142857142857 13.641176470588233  C 17.01857142857143 14.323529411764705  15.898928571428572 14.323529411764705  15.203571428571427 13.641176470588233  C 14.51410714285714 12.94705882352941  14.51410714285714 11.823529411764703  15.203571428571427 11.141176470588235  L 15.83410714285714 10.511764705882351  C 15.751607142857141 10.34705882352941  15.680892857142855 10.170588235294117  15.616071428571427 9.994117647058824  L 14.726249999999997 9.994117647058824  C 13.753928571428569 9.994117647058824  12.958392857142854 9.199999999999998  12.958392857142854 8.229411764705882  C 12.958392857142854 7.258823529411764  13.753928571428569 6.46470588235294  14.726249999999997 6.46470588235294  L 15.616071428571427 6.46470588235294  C 15.680892857142855 6.288235294117646  15.751607142857141 6.111764705882352  15.83410714285714 5.947058823529411  L 15.203571428571427 5.317647058823529  C 14.519999999999998 4.635294117647058  14.519999999999998 3.517647058823529  15.203571428571427 2.8235294117647056  C 15.904821428571427 2.1352941176470583  17.024464285714288 2.1352941176470583  17.708035714285714 2.8235294117647056  L 18.338571428571427 3.452941176470588  C 18.50357142857143 3.3705882352941168  18.68035714285714 3.3  18.857142857142858 3.235294117647059  L 18.857142857142858 2.3470588235294123  C 18.857142857142858 1.376470588235294  19.65267857142857 0.5823529411764707  20.625 0.5823529411764707  C 21.59732142857143 0.5823529411764707  22.392857142857142 1.376470588235294  22.392857142857142 2.3470588235294123  L 22.392857142857142 3.235294117647059  C 22.569642857142853 3.3  22.74642857142857 3.370588235294118  22.911428571428573 3.452941176470588  L 23.541964285714286 2.8235294117647056  C 24.225535714285712 2.141176470588235  25.345178571428576 2.1352941176470583  26.040535714285717 2.8235294117647056  C 26.730000000000004 3.517647058823529  26.730000000000004 4.641176470588235  26.040535714285717 5.323529411764706  L 25.410000000000004 5.952941176470587  C 25.492500000000003 6.117647058823528  25.563214285714288 6.294117647058821  25.628035714285716 6.470588235294115  L 26.517857142857142 6.470588235294115  C 27.49017857142857 6.470588235294115  28.285714285714285 7.264705882352939  28.285714285714285 8.235294117647056  C 28.285714285714285 9.205882352941174  27.49017857142857 9.999999999999998  26.517857142857142 9.999999999999998  Z M 20.625 11.176470588235293  C 22.25142857142857 11.176470588235293  23.571428571428573 9.858823529411765  23.571428571428573 8.23529411764706  C 23.571428571428573 6.611764705882354  22.25142857142857 5.294117647058824  20.625 5.294117647058824  C 18.99857142857143 5.294117647058824  17.678571428571427 6.611764705882354  17.678571428571427 8.23529411764706  C 17.678571428571427 9.858823529411765  18.99857142857143 11.176470588235293  20.625 11.176470588235293  Z M 4.714285714285714 19.411764705882355  C 4.714285714285714 18.764705882352942  4.183928571428571 18.235294117647058  3.5357142857142856 18.235294117647058  L 1.1785714285714286 18.235294117647058  C 0.5303571428571431 18.235294117647058  0 18.764705882352942  0 19.411764705882355  L 0 28.823529411764707  C 0 29.47058823529412  0.5303571428571431 30  1.1785714285714286 30  L 3.5357142857142856 30  C 4.183928571428571 30  4.714285714285714 29.47058823529412  4.714285714285714 28.823529411764707  L 4.714285714285714 19.411764705882355  Z M 16.06392857142857 24.09411764705882  L 16.069821428571426 24.094117647058823  C 16.016785714285714 24.11176470588235  15.963750000000001 24.11764705882353  15.910714285714286 24.11764705882353  C 15.82232142857143 24.11764705882353  15.728035714285715 24.094117647058823  15.645535714285716 24.05294117647059  L 12.10982142857143 22.288235294117648  C 11.82107142857143 22.141176470588235  11.703214285714285 21.788235294117644  11.844642857142857 21.499999999999996  C 11.991964285714287 21.21176470588235  12.345535714285717 21.094117647058823  12.634285714285715 21.235294117647058  L 15.963750000000003 22.899999999999995  L 20.619107142857146 21.570588235294114  L 20.619107142857146 20.458823529411763  C 20.619107142857146 19.964705882352934  20.448214285714286 19.47647058823529  20.100535714285712 19.129411764705882  C 19.634999999999998 18.67058823529411  18.98089285714286 18.50588235294117  18.368035714285714 18.682352941176468  L 16.411607142857143 19.241176470588236  C 16.205357142857142 19.300000000000004  15.987321428571429 19.241176470588236  15.834107142857142 19.094117647058823  L 13.388571428571428 16.65294117647059  C 12.852321428571429 16.117647058823533  12.02732142857143 15.982352941176472  11.349642857142857 16.323529411764703  L 5.892857142857142 19.047058823529415  L 5.892857142857142 28.888235294117646  L 15.433392857142856 29.88823529411765  C 15.574821428571427 29.90588235294118  15.722142857142854 29.911764705882355  15.863571428571428 29.911764705882355  C 16.482321428571428 29.911764705882355  17.101071428571426 29.770588235294117  17.660892857142855 29.5  L 31.892142857142858 22.605882352941176  C 32.56392857142857 22.33529411764706  32.99410714285714 21.694117647058825  32.99410714285714 20.970588235294116  L 32.99410714285714 20.823529411764707  C 32.99410714285714 20.041176470588237  32.24571428571428 19.476470588235294  31.49142857142857 19.69411764705882  L 16.06392857142857 24.09411764705882  Z " fill-rule="evenodd" />
    </mask>
  </defs>
  <g transform="matrix(1 0 0 1 -42 -526 )">
    <path d="M 20.625 6.470588235294118  C 21.59732142857143 6.470588235294118  22.392857142857142 7.264705882352942  22.392857142857142 8.23529411764706  C 22.392857142857142 9.205882352941176  21.59732142857143 10  20.625 10  C 19.65267857142857 10  18.857142857142858 9.205882352941176  18.857142857142858 8.23529411764706  C 18.857142857142858 7.264705882352942  19.65267857142857 6.470588235294118  20.625 6.470588235294118  Z M 26.517857142857142 9.999999999999998  L 25.628035714285716 10  C 25.563214285714288 10.176470588235295  25.492500000000003 10.35294117647059  25.410000000000004 10.51764705882353  L 26.040535714285717 11.147058823529413  C 26.724107142857143 11.829411764705881  26.724107142857143 12.94705882352941  26.040535714285717 13.641176470588233  C 25.345178571428576 14.329411764705883  24.219642857142862 14.329411764705883  23.536071428571432 13.641176470588233  L 22.905535714285715 13.011764705882351  C 22.740535714285716 13.094117647058821  22.563750000000002 13.16470588235294  22.386964285714285 13.22941176470588  L 22.386964285714285 14.117647058823529  C 22.386964285714285 15.088235294117647  21.59142857142857 15.882352941176471  20.619107142857146 15.882352941176471  C 19.646785714285716 15.882352941176471  18.85125 15.088235294117647  18.85125 14.117647058823529  L 18.85125 13.22941176470588  C 18.674464285714286 13.16470588235294  18.49767857142857 13.094117647058821  18.33267857142857 13.011764705882351  L 17.702142857142857 13.641176470588233  C 17.01857142857143 14.323529411764705  15.898928571428572 14.323529411764705  15.203571428571427 13.641176470588233  C 14.51410714285714 12.94705882352941  14.51410714285714 11.823529411764703  15.203571428571427 11.141176470588235  L 15.83410714285714 10.511764705882351  C 15.751607142857141 10.34705882352941  15.680892857142855 10.170588235294117  15.616071428571427 9.994117647058824  L 14.726249999999997 9.994117647058824  C 13.753928571428569 9.994117647058824  12.958392857142854 9.199999999999998  12.958392857142854 8.229411764705882  C 12.958392857142854 7.258823529411764  13.753928571428569 6.46470588235294  14.726249999999997 6.46470588235294  L 15.616071428571427 6.46470588235294  C 15.680892857142855 6.288235294117646  15.751607142857141 6.111764705882352  15.83410714285714 5.947058823529411  L 15.203571428571427 5.317647058823529  C 14.519999999999998 4.635294117647058  14.519999999999998 3.517647058823529  15.203571428571427 2.8235294117647056  C 15.904821428571427 2.1352941176470583  17.024464285714288 2.1352941176470583  17.708035714285714 2.8235294117647056  L 18.338571428571427 3.452941176470588  C 18.50357142857143 3.3705882352941168  18.68035714285714 3.3  18.857142857142858 3.235294117647059  L 18.857142857142858 2.3470588235294123  C 18.857142857142858 1.376470588235294  19.65267857142857 0.5823529411764707  20.625 0.5823529411764707  C 21.59732142857143 0.5823529411764707  22.392857142857142 1.376470588235294  22.392857142857142 2.3470588235294123  L 22.392857142857142 3.235294117647059  C 22.569642857142853 3.3  22.74642857142857 3.370588235294118  22.911428571428573 3.452941176470588  L 23.541964285714286 2.8235294117647056  C 24.225535714285712 2.141176470588235  25.345178571428576 2.1352941176470583  26.040535714285717 2.8235294117647056  C 26.730000000000004 3.517647058823529  26.730000000000004 4.641176470588235  26.040535714285717 5.323529411764706  L 25.410000000000004 5.952941176470587  C 25.492500000000003 6.117647058823528  25.563214285714288 6.294117647058821  25.628035714285716 6.470588235294115  L 26.517857142857142 6.470588235294115  C 27.49017857142857 6.470588235294115  28.285714285714285 7.264705882352939  28.285714285714285 8.235294117647056  C 28.285714285714285 9.205882352941174  27.49017857142857 9.999999999999998  26.517857142857142 9.999999999999998  Z M 20.625 11.176470588235293  C 22.25142857142857 11.176470588235293  23.571428571428573 9.858823529411765  23.571428571428573 8.23529411764706  C 23.571428571428573 6.611764705882354  22.25142857142857 5.294117647058824  20.625 5.294117647058824  C 18.99857142857143 5.294117647058824  17.678571428571427 6.611764705882354  17.678571428571427 8.23529411764706  C 17.678571428571427 9.858823529411765  18.99857142857143 11.176470588235293  20.625 11.176470588235293  Z M 4.714285714285714 19.411764705882355  C 4.714285714285714 18.764705882352942  4.183928571428571 18.235294117647058  3.5357142857142856 18.235294117647058  L 1.1785714285714286 18.235294117647058  C 0.5303571428571431 18.235294117647058  0 18.764705882352942  0 19.411764705882355  L 0 28.823529411764707  C 0 29.47058823529412  0.5303571428571431 30  1.1785714285714286 30  L 3.5357142857142856 30  C 4.183928571428571 30  4.714285714285714 29.47058823529412  4.714285714285714 28.823529411764707  L 4.714285714285714 19.411764705882355  Z M 16.06392857142857 24.09411764705882  L 16.069821428571426 24.094117647058823  C 16.016785714285714 24.11176470588235  15.963750000000001 24.11764705882353  15.910714285714286 24.11764705882353  C 15.82232142857143 24.11764705882353  15.728035714285715 24.094117647058823  15.645535714285716 24.05294117647059  L 12.10982142857143 22.288235294117648  C 11.82107142857143 22.141176470588235  11.703214285714285 21.788235294117644  11.844642857142857 21.499999999999996  C 11.991964285714287 21.21176470588235  12.345535714285717 21.094117647058823  12.634285714285715 21.235294117647058  L 15.963750000000003 22.899999999999995  L 20.619107142857146 21.570588235294114  L 20.619107142857146 20.458823529411763  C 20.619107142857146 19.964705882352934  20.448214285714286 19.47647058823529  20.100535714285712 19.129411764705882  C 19.634999999999998 18.67058823529411  18.98089285714286 18.50588235294117  18.368035714285714 18.682352941176468  L 16.411607142857143 19.241176470588236  C 16.205357142857142 19.300000000000004  15.987321428571429 19.241176470588236  15.834107142857142 19.094117647058823  L 13.388571428571428 16.65294117647059  C 12.852321428571429 16.117647058823533  12.02732142857143 15.982352941176472  11.349642857142857 16.323529411764703  L 5.892857142857142 19.047058823529415  L 5.892857142857142 28.888235294117646  L 15.433392857142856 29.88823529411765  C 15.574821428571427 29.90588235294118  15.722142857142854 29.911764705882355  15.863571428571428 29.911764705882355  C 16.482321428571428 29.911764705882355  17.101071428571426 29.770588235294117  17.660892857142855 29.5  L 31.892142857142858 22.605882352941176  C 32.56392857142857 22.33529411764706  32.99410714285714 21.694117647058825  32.99410714285714 20.970588235294116  L 32.99410714285714 20.823529411764707  C 32.99410714285714 20.041176470588237  32.24571428571428 19.476470588235294  31.49142857142857 19.69411764705882  L 16.06392857142857 24.09411764705882  Z " fill-rule="nonzero" fill="rgba(127, 127, 127, 1)" stroke="none" transform="matrix(1 0 0 1 42 526 )" class="fill" />
    <path d="M 20.625 6.470588235294118  C 21.59732142857143 6.470588235294118  22.392857142857142 7.264705882352942  22.392857142857142 8.23529411764706  C 22.392857142857142 9.205882352941176  21.59732142857143 10  20.625 10  C 19.65267857142857 10  18.857142857142858 9.205882352941176  18.857142857142858 8.23529411764706  C 18.857142857142858 7.264705882352942  19.65267857142857 6.470588235294118  20.625 6.470588235294118  Z " stroke-width="0" stroke-dasharray="0" stroke="rgba(215, 215, 215, 1)" fill="none" transform="matrix(1 0 0 1 42 526 )" class="stroke" mask="url(#Clip132)" />
    <path d="M 26.517857142857142 9.999999999999998  L 25.628035714285716 10  C 25.563214285714288 10.176470588235295  25.492500000000003 10.35294117647059  25.410000000000004 10.51764705882353  L 26.040535714285717 11.147058823529413  C 26.724107142857143 11.829411764705881  26.724107142857143 12.94705882352941  26.040535714285717 13.641176470588233  C 25.345178571428576 14.329411764705883  24.219642857142862 14.329411764705883  23.536071428571432 13.641176470588233  L 22.905535714285715 13.011764705882351  C 22.740535714285716 13.094117647058821  22.563750000000002 13.16470588235294  22.386964285714285 13.22941176470588  L 22.386964285714285 14.117647058823529  C 22.386964285714285 15.088235294117647  21.59142857142857 15.882352941176471  20.619107142857146 15.882352941176471  C 19.646785714285716 15.882352941176471  18.85125 15.088235294117647  18.85125 14.117647058823529  L 18.85125 13.22941176470588  C 18.674464285714286 13.16470588235294  18.49767857142857 13.094117647058821  18.33267857142857 13.011764705882351  L 17.702142857142857 13.641176470588233  C 17.01857142857143 14.323529411764705  15.898928571428572 14.323529411764705  15.203571428571427 13.641176470588233  C 14.51410714285714 12.94705882352941  14.51410714285714 11.823529411764703  15.203571428571427 11.141176470588235  L 15.83410714285714 10.511764705882351  C 15.751607142857141 10.34705882352941  15.680892857142855 10.170588235294117  15.616071428571427 9.994117647058824  L 14.726249999999997 9.994117647058824  C 13.753928571428569 9.994117647058824  12.958392857142854 9.199999999999998  12.958392857142854 8.229411764705882  C 12.958392857142854 7.258823529411764  13.753928571428569 6.46470588235294  14.726249999999997 6.46470588235294  L 15.616071428571427 6.46470588235294  C 15.680892857142855 6.288235294117646  15.751607142857141 6.111764705882352  15.83410714285714 5.947058823529411  L 15.203571428571427 5.317647058823529  C 14.519999999999998 4.635294117647058  14.519999999999998 3.517647058823529  15.203571428571427 2.8235294117647056  C 15.904821428571427 2.1352941176470583  17.024464285714288 2.1352941176470583  17.708035714285714 2.8235294117647056  L 18.338571428571427 3.452941176470588  C 18.50357142857143 3.3705882352941168  18.68035714285714 3.3  18.857142857142858 3.235294117647059  L 18.857142857142858 2.3470588235294123  C 18.857142857142858 1.376470588235294  19.65267857142857 0.5823529411764707  20.625 0.5823529411764707  C 21.59732142857143 0.5823529411764707  22.392857142857142 1.376470588235294  22.392857142857142 2.3470588235294123  L 22.392857142857142 3.235294117647059  C 22.569642857142853 3.3  22.74642857142857 3.370588235294118  22.911428571428573 3.452941176470588  L 23.541964285714286 2.8235294117647056  C 24.225535714285712 2.141176470588235  25.345178571428576 2.1352941176470583  26.040535714285717 2.8235294117647056  C 26.730000000000004 3.517647058823529  26.730000000000004 4.641176470588235  26.040535714285717 5.323529411764706  L 25.410000000000004 5.952941176470587  C 25.492500000000003 6.117647058823528  25.563214285714288 6.294117647058821  25.628035714285716 6.470588235294115  L 26.517857142857142 6.470588235294115  C 27.49017857142857 6.470588235294115  28.285714285714285 7.264705882352939  28.285714285714285 8.235294117647056  C 28.285714285714285 9.205882352941174  27.49017857142857 9.999999999999998  26.517857142857142 9.999999999999998  Z " stroke-width="0" stroke-dasharray="0" stroke="rgba(215, 215, 215, 1)" fill="none" transform="matrix(1 0 0 1 42 526 )" class="stroke" mask="url(#Clip132)" />
    <path d="M 20.625 11.176470588235293  C 22.25142857142857 11.176470588235293  23.571428571428573 9.858823529411765  23.571428571428573 8.23529411764706  C 23.571428571428573 6.611764705882354  22.25142857142857 5.294117647058824  20.625 5.294117647058824  C 18.99857142857143 5.294117647058824  17.678571428571427 6.611764705882354  17.678571428571427 8.23529411764706  C 17.678571428571427 9.858823529411765  18.99857142857143 11.176470588235293  20.625 11.176470588235293  Z " stroke-width="0" stroke-dasharray="0" stroke="rgba(215, 215, 215, 1)" fill="none" transform="matrix(1 0 0 1 42 526 )" class="stroke" mask="url(#Clip132)" />
    <path d="M 4.714285714285714 19.411764705882355  C 4.714285714285714 18.764705882352942  4.183928571428571 18.235294117647058  3.5357142857142856 18.235294117647058  L 1.1785714285714286 18.235294117647058  C 0.5303571428571431 18.235294117647058  0 18.764705882352942  0 19.411764705882355  L 0 28.823529411764707  C 0 29.47058823529412  0.5303571428571431 30  1.1785714285714286 30  L 3.5357142857142856 30  C 4.183928571428571 30  4.714285714285714 29.47058823529412  4.714285714285714 28.823529411764707  L 4.714285714285714 19.411764705882355  Z " stroke-width="0" stroke-dasharray="0" stroke="rgba(215, 215, 215, 1)" fill="none" transform="matrix(1 0 0 1 42 526 )" class="stroke" mask="url(#Clip132)" />
    <path d="M 16.06392857142857 24.09411764705882  L 16.069821428571426 24.094117647058823  C 16.016785714285714 24.11176470588235  15.963750000000001 24.11764705882353  15.910714285714286 24.11764705882353  C 15.82232142857143 24.11764705882353  15.728035714285715 24.094117647058823  15.645535714285716 24.05294117647059  L 12.10982142857143 22.288235294117648  C 11.82107142857143 22.141176470588235  11.703214285714285 21.788235294117644  11.844642857142857 21.499999999999996  C 11.991964285714287 21.21176470588235  12.345535714285717 21.094117647058823  12.634285714285715 21.235294117647058  L 15.963750000000003 22.899999999999995  L 20.619107142857146 21.570588235294114  L 20.619107142857146 20.458823529411763  C 20.619107142857146 19.964705882352934  20.448214285714286 19.47647058823529  20.100535714285712 19.129411764705882  C 19.634999999999998 18.67058823529411  18.98089285714286 18.50588235294117  18.368035714285714 18.682352941176468  L 16.411607142857143 19.241176470588236  C 16.205357142857142 19.300000000000004  15.987321428571429 19.241176470588236  15.834107142857142 19.094117647058823  L 13.388571428571428 16.65294117647059  C 12.852321428571429 16.117647058823533  12.02732142857143 15.982352941176472  11.349642857142857 16.323529411764703  L 5.892857142857142 19.047058823529415  L 5.892857142857142 28.888235294117646  L 15.433392857142856 29.88823529411765  C 15.574821428571427 29.90588235294118  15.722142857142854 29.911764705882355  15.863571428571428 29.911764705882355  C 16.482321428571428 29.911764705882355  17.101071428571426 29.770588235294117  17.660892857142855 29.5  L 31.892142857142858 22.605882352941176  C 32.56392857142857 22.33529411764706  32.99410714285714 21.694117647058825  32.99410714285714 20.970588235294116  L 32.99410714285714 20.823529411764707  C 32.99410714285714 20.041176470588237  32.24571428571428 19.476470588235294  31.49142857142857 19.69411764705882  L 16.06392857142857 24.09411764705882  Z " stroke-width="0" stroke-dasharray="0" stroke="rgba(215, 215, 215, 1)" fill="none" transform="matrix(1 0 0 1 42 526 )" class="stroke" mask="url(#Clip132)" />
  </g>
</svg>